####
#
#	OBJ File Generated by LightWave3D
#	LightWave3D OBJ Export v2.3
#
####
o Miningcart.obj
mtllib Miningcart.mtl
g default
v -0.598712 0.517894 0.46
v -0.538768 0.209502 0.231746
v -0.56707 0.355106 0.231746
v -0.676196 0.182789 0.231746
v -0.704498 0.328392 0.231746
v -0.589966 0.4729 0.601068
v -0.56707 0.355106 0.688254
v -0.538768 0.209502 0.688254
v -0.51587 0.091707 0.601068
v -0.507124 0.0467132 0.46
v -0.51587 0.091707 0.318932
v -0.589966 0.4729 0.318932
v -0.727394 0.446188 0.601068
v -0.704498 0.328392 0.688254
v -0.676196 0.182789 0.688254
v -0.653298 0.0649938 0.601068
v -0.644552 0.02 0.46
v -0.653298 0.0649938 0.318932
v -0.73614 0.491182 0.46
v -0.727394 0.446188 0.318932
v -0.16 0.66 0.661316
v -0.0997584 0.785094 0.661316
v 0.0356034 0.815988 0.661316
v 0.144155 0.729422 0.661316
v 0.144155 0.590578 0.661316
v 0.0356034 0.504012 0.661316
v -0.0997584 0.534906 0.661316
v 0.598712 0.517894 0.46
v 0.538768 0.209502 0.231746
v 0.56707 0.355106 0.231746
v 0.676196 0.182789 0.231746
v 0.704498 0.328392 0.231746
v 0.589966 0.4729 0.601068
v 0.56707 0.355106 0.688254
v 0.538768 0.209502 0.688254
v 0.51587 0.091707 0.601068
v 0.507124 0.0467132 0.46
v 0.51587 0.091707 0.318932
v 0.589966 0.4729 0.318932
v 0.727394 0.446188 0.601068
v 0.704498 0.328392 0.688254
v 0.676196 0.182789 0.688254
v 0.653298 0.0649938 0.601068
v 0.644552 0.02 0.46
v 0.653298 0.0649938 0.318932
v 0.73614 0.491182 0.46
v 0.727394 0.446188 0.318932
v -0.598712 0.517894 -0.66
v -0.538768 0.209502 -0.431746
v -0.56707 0.355106 -0.431746
v -0.676196 0.182789 -0.431746
v -0.704498 0.328392 -0.431746
v -0.589966 0.4729 -0.801068
v -0.56707 0.355106 -0.888254
v -0.538768 0.209502 -0.888254
v -0.51587 0.091707 -0.801068
v -0.507124 0.0467132 -0.66
v -0.51587 0.091707 -0.518932
v -0.589966 0.4729 -0.518932
v -0.727394 0.446188 -0.801068
v -0.704498 0.328392 -0.888254
v -0.676196 0.182789 -0.888254
v -0.653298 0.0649938 -0.801068
v -0.644552 0.02 -0.66
v -0.653298 0.0649938 -0.518932
v -0.73614 0.491182 -0.66
v -0.727394 0.446188 -0.518932
v 0.598712 0.517894 -0.66
v 0.538768 0.209502 -0.431746
v 0.56707 0.355106 -0.431746
v 0.676196 0.182789 -0.431746
v 0.704498 0.328392 -0.431746
v 0.589966 0.4729 -0.801068
v 0.56707 0.355106 -0.888254
v 0.538768 0.209502 -0.888254
v 0.51587 0.091707 -0.801068
v 0.507124 0.0467132 -0.66
v 0.51587 0.091707 -0.518932
v 0.589966 0.4729 -0.518932
v 0.727394 0.446188 -0.801068
v 0.704498 0.328392 -0.888254
v 0.676196 0.182789 -0.888254
v 0.653298 0.0649938 -0.801068
v 0.644552 0.02 -0.66
v 0.653298 0.0649938 -0.518932
v 0.73614 0.491182 -0.66
v 0.727394 0.446188 -0.518932
v 0.605 0.802342 -0.99
v 0.479246 0.802342 -0.867616
v 0.725 1.02274 -0.99
v 0.601046 1.02274 -0.862488
v -0.605 0.802342 -0.99
v -0.493474 0.802342 -0.867616
v -0.725 1.02274 -0.99
v -0.599844 1.02274 -0.862488
v 0.397774 0.282742 -0.777758
v 0.49005 0.228142 -0.850608
v -0.409584 0.282742 -0.777758
v -0.49005 0.228142 -0.850608
v 0.479246 0.802342 0.610344
v 0.605 0.802342 0.7524
v 0.725 1.02274 0.99
v 0.601046 1.02274 0.862488
v 0.144155 0.590578 0.858684
v 0.144155 0.729422 0.858684
v 0.0356034 0.815988 0.858684
v -0.0997584 0.534906 0.858684
v -0.0997584 0.785094 0.858684
v -0.16 0.66 0.858684
v -0.493474 0.802342 0.610344
v -0.605 0.802342 0.7524
v -0.725 1.02274 0.99
v -0.599844 1.02274 0.862488
v 0.397774 0.282742 0.522846
v 0.49005 0.228142 0.613008
v 0.0356034 0.504012 0.858684
v -0.409584 0.282742 0.522846
v -0.49005 0.228142 0.613008
vt 0.01026 0.169278
vt 0.01026 0.2303
vt 0.0141121 0.164678
vt 0.0152798 0.229971
vt 0.019816 0.985925
vt 0.0234462 0.985721
vt 0.0345739 0.0107462
vt 0.0383496 0.0103
vt 0.0464974 0.914779
vt 0.0515906 0.911018
vt 0.072056 0.729425
vt 0.0737871 0.734903
vt 0.266278 0.542987
vt 0.287406 0.734903
vt 0.289976 0.729425
vt 0.291717 0.493113
vt 0.291717 0.592862
vt 0.308963 0.911018
vt 0.315535 0.914779
vt 0.330737 0.0107462
vt 0.33329 0.0103
vt 0.34119 0.985721
vt 0.342216 0.985925
vt 0.348878 0.480795
vt 0.348878 0.605179
vt 0.350662 0.164678
vt 0.36138 0.169278
vt 0.394718 0.515309
vt 0.394718 0.570665
vt 0.408078 0.229971
vt 0.40926 0.2303
vt 0.414668 0.047844
vt 0.414668 0.464017
vt 0.447391 0.0834207
vt 0.447391 0.428095
vt 0.486268 0.128085
vt 0.486268 0.390032
vt 0.488271 0.129702
vt 0.488271 0.390568
vt 0.833006 0.692658
vt 0.833006 0.699544
vt 0.833006 0.730189
vt 0.833006 0.737075
vt 0.849085 0.128085
vt 0.849085 0.390032
vt 0.852275 0.129702
vt 0.852275 0.390568
vt 0.855922 0.662295
vt 0.855922 0.669181
vt 0.855922 0.760553
vt 0.855922 0.767438
vt 0.890064 0.0834207
vt 0.890064 0.428095
vt 0.893 0.650698
vt 0.893 0.657583
vt 0.893 0.77215
vt 0.893 0.779036
vt 0.922787 0.047844
vt 0.922787 0.464017
vt 0.930078 0.662295
vt 0.930078 0.669181
vt 0.930078 0.760553
vt 0.930078 0.767438
vt 0.952994 0.692658
vt 0.952994 0.699544
vt 0.952994 0.730189
vt 0.952994 0.737075
vn -0.593425 0.61414 -0.520268
vn -0.508983 0.179704 -0.841809
vn -0.404601 -0.357289 -0.841809
vn -0.320155 -0.791722 -0.520266
vn -0.287901 -0.95766 8.32094e-008
vn -0.320155 -0.791722 0.520266
vn -0.404601 -0.357289 0.841809
vn -0.508983 0.179704 0.841809
vn -0.593425 0.61414 0.520268
vn -0.625678 0.780082 9.70782e-008
vn 0.320157 0.791721 0.520266
vn 0.4046 0.357288 0.84181
vn 0.508982 -0.179705 0.84181
vn 0.593427 -0.614139 0.520267
vn 0.625683 -0.780078 8.32096e-008
vn 0.593427 -0.614139 -0.520266
vn 0.508982 -0.179705 -0.84181
vn 0.4046 0.357288 -0.84181
vn 0.320157 0.791721 -0.520266
vn 0.287907 0.957658 9.70774e-008
vn 0.492927 -0.71998 0.488519
vn -0.492927 -0.71998 0.488519
vn -0.492927 -0.71998 -0.488519
vn 0.492927 -0.71998 -0.488519
vn 0.512267 0.690031 0.511311
vn 0.512964 0.68871 -0.512393
vn -0.514061 0.687351 -0.513117
vn -0.513363 0.688679 0.512035
vn 0.326139 0.873248 0.362037
vn -0.434417 0.752742 -0.494633
vn -0.644692 0.57893 0.499211
vn 0.266679 0.943877 -0.194878
vn 0.266679 0.943877 -0.194878
vn -0.644692 0.57893 0.499211
vn 0.644692 0.57893 0.499211
vn -0.256156 0.947251 -0.192612
vn -0.256156 0.947251 -0.192612
vn 0.644692 0.57893 0.499211
vn 0.434417 0.752742 -0.494633
vn -0.313002 0.879891 0.357521
vn -0.625678 0.780082 9.70782e-008
vn 0.287907 0.957658 9.70774e-008
vn 0.320157 0.791721 -0.520266
vn -0.593425 0.61414 -0.520268
vn -0.593425 0.61414 -0.520268
vn 0.320157 0.791721 -0.520266
vn 0.4046 0.357288 -0.84181
vn -0.508983 0.179704 -0.841809
vn -0.508983 0.179704 -0.841809
vn 0.4046 0.357288 -0.84181
vn 0.508982 -0.179705 -0.84181
vn -0.404601 -0.357289 -0.841809
vn -0.404601 -0.357289 -0.841809
vn 0.508982 -0.179705 -0.84181
vn 0.593427 -0.614139 -0.520266
vn -0.320155 -0.791722 -0.520266
vn -0.320155 -0.791722 -0.520266
vn 0.593427 -0.614139 -0.520266
vn 0.625683 -0.780078 8.32096e-008
vn -0.287901 -0.95766 8.32094e-008
vn 0.625683 -0.780078 8.32096e-008
vn 0.593427 -0.614139 0.520267
vn -0.320155 -0.791722 0.520266
vn -0.287901 -0.95766 8.32094e-008
vn 0.593427 -0.614139 0.520267
vn 0.508982 -0.179705 0.84181
vn -0.404601 -0.357289 0.841809
vn -0.320155 -0.791722 0.520266
vn 0.508982 -0.179705 0.84181
vn 0.4046 0.357288 0.84181
vn -0.508983 0.179704 0.841809
vn -0.404601 -0.357289 0.841809
vn 0.4046 0.357288 0.84181
vn 0.320157 0.791721 0.520266
vn -0.593425 0.61414 0.520268
vn -0.508983 0.179704 0.841809
vn 0.320157 0.791721 0.520266
vn 0.287907 0.957658 9.70774e-008
vn -0.625678 0.780082 9.70782e-008
vn -0.593425 0.61414 0.520268
vn 0.65024 -0.318467 -0.689758
vn 0.6236 -0.551379 0.554169
vn 0.492927 -0.71998 0.488519
vn 0.492927 -0.71998 -0.488519
vn -0.492927 -0.71998 0.488519
vn -0.6236 -0.551379 0.554169
vn -0.65024 -0.318467 -0.689758
vn -0.492927 -0.71998 -0.488519
vn 0.65024 -0.318467 -0.689758
vn 0.434417 0.752742 -0.494633
vn 0.644692 0.57893 0.499211
vn 0.6236 -0.551379 0.554169
vn -0.6236 -0.551379 0.554169
vn -0.644692 0.57893 0.499211
vn -0.434417 0.752742 -0.494633
vn -0.65024 -0.318467 -0.689758
vn 0.644692 0.57893 0.499211
vn -0.644692 0.57893 0.499211
vn -0.6236 -0.551379 0.554169
vn 0.6236 -0.551379 0.554169
vn 0.665209 0.261171 0.69949
vn 0.326139 0.873248 0.362037
vn 0.266679 0.943877 -0.194878
vn 0.645372 0.517238 -0.562102
vn 0.645372 0.517238 -0.562102
vn 0.266679 0.943877 -0.194878
vn -0.256156 0.947251 -0.192612
vn -0.635302 0.531095 -0.560651
vn -0.635302 0.531095 -0.560651
vn -0.256156 0.947251 -0.192612
vn -0.313002 0.879891 0.357521
vn -0.657522 0.277291 0.700553
vn 0.512267 0.690031 0.511311
vn 0.665209 0.261171 0.69949
vn 0.645372 0.517238 -0.562102
vn 0.512964 0.68871 -0.512393
vn -0.635302 0.531095 -0.560651
vn -0.657522 0.277291 0.700553
vn -0.513363 0.688679 0.512035
vn -0.514061 0.687351 -0.513117
vn 0.6236 -0.551379 0.554169
vn -0.6236 -0.551379 0.554169
vn -0.492927 -0.71998 0.488519
vn 0.492927 -0.71998 0.488519
vn 0.512964 0.68871 -0.512393
vn 0.645372 0.517238 -0.562102
vn -0.635302 0.531095 -0.560651
vn -0.514061 0.687351 -0.513117
vn -0.657522 0.277291 0.700553
vn 0.665209 0.261171 0.69949
vn 0.512267 0.690031 0.511311
vn -0.513363 0.688679 0.512035
vn -0.313002 0.879891 0.357521
vn 0.326139 0.873248 0.362037
vn 0.665209 0.261171 0.69949
vn -0.657522 0.277291 0.700553
vn 0.434417 0.752742 -0.494633
vn -0.434417 0.752742 -0.494633
vn 0.326139 0.873248 0.362037
vn -0.313002 0.879891 0.357521
vn -0.492927 -0.71998 -0.488519
vn -0.65024 -0.318467 -0.689758
vn 0.65024 -0.318467 -0.689758
vn 0.492927 -0.71998 -0.488519
vn -0.65024 -0.318467 -0.689758
vn -0.434417 0.752742 -0.494633
vn 0.434417 0.752742 -0.494633
vn 0.65024 -0.318467 -0.689758
vn -0.545164 0.683618 -0.485245
vn 0.19457 0.852457 -0.485242
vn 0.787787 0.379381 -0.485244
vn 0.787787 -0.379381 -0.485244
vn 0.19457 -0.852457 -0.485242
vn -0.545164 -0.683618 -0.485245
vn -0.874379 0 -0.485243
vn -0.545164 0.683618 0.485245
vn -0.545164 0.683618 -0.485245
vn -0.874379 0 -0.485243
vn -0.874379 0 0.485243
vn 0.19457 0.852457 0.485242
vn 0.19457 0.852457 -0.485242
vn -0.545164 0.683618 -0.485245
vn -0.545164 0.683618 0.485245
vn 0.787787 0.379381 -0.485244
vn 0.19457 0.852457 -0.485242
vn 0.19457 0.852457 0.485242
vn 0.787787 0.379381 0.485244
vn 0.787787 -0.379381 -0.485244
vn 0.787787 0.379381 -0.485244
vn 0.787787 0.379381 0.485244
vn 0.787787 -0.379381 0.485244
vn 0.19457 -0.852457 -0.485242
vn 0.787787 -0.379381 -0.485244
vn 0.787787 -0.379381 0.485244
vn 0.19457 -0.852457 0.485242
vn -0.545164 -0.683618 0.485245
vn -0.545164 -0.683618 -0.485245
vn 0.19457 -0.852457 -0.485242
vn 0.19457 -0.852457 0.485242
vn -0.874379 0 0.485243
vn -0.874379 0 -0.485243
vn -0.545164 -0.683618 -0.485245
vn -0.545164 -0.683618 0.485245
vn -0.545164 -0.683618 0.485245
vn 0.19457 -0.852457 0.485242
vn 0.787787 -0.379381 0.485244
vn 0.787787 0.379381 0.485244
vn 0.19457 0.852457 0.485242
vn -0.545164 0.683618 0.485245
vn -0.874379 0 0.485243
vn 0.593425 0.61414 0.520268
vn 0.508983 0.179704 0.841809
vn 0.404601 -0.357289 0.841809
vn 0.320155 -0.791722 0.520266
vn 0.287901 -0.95766 8.32094e-008
vn 0.320155 -0.791722 -0.520266
vn 0.404601 -0.357289 -0.841809
vn 0.508983 0.179704 -0.841809
vn 0.593425 0.61414 -0.520268
vn 0.625678 0.780082 9.70782e-008
vn -0.320157 0.791721 -0.520266
vn -0.4046 0.357288 -0.84181
vn -0.508982 -0.179705 -0.84181
vn -0.593427 -0.614139 -0.520266
vn -0.625683 -0.780078 8.32096e-008
vn -0.593427 -0.614139 0.520267
vn -0.508982 -0.179705 0.84181
vn -0.4046 0.357288 0.84181
vn -0.320157 0.791721 0.520266
vn -0.287907 0.957658 9.70774e-008
vn -0.320157 0.791721 -0.520266
vn -0.287907 0.957658 9.70774e-008
vn 0.625678 0.780082 9.70782e-008
vn 0.593425 0.61414 -0.520268
vn -0.4046 0.357288 -0.84181
vn -0.320157 0.791721 -0.520266
vn 0.593425 0.61414 -0.520268
vn 0.508983 0.179704 -0.841809
vn -0.508982 -0.179705 -0.84181
vn -0.4046 0.357288 -0.84181
vn 0.508983 0.179704 -0.841809
vn 0.404601 -0.357289 -0.841809
vn -0.593427 -0.614139 -0.520266
vn -0.508982 -0.179705 -0.84181
vn 0.404601 -0.357289 -0.841809
vn 0.320155 -0.791722 -0.520266
vn -0.625683 -0.780078 8.32096e-008
vn -0.593427 -0.614139 -0.520266
vn 0.320155 -0.791722 -0.520266
vn 0.287901 -0.95766 8.32094e-008
vn 0.320155 -0.791722 0.520266
vn -0.593427 -0.614139 0.520267
vn -0.625683 -0.780078 8.32096e-008
vn 0.287901 -0.95766 8.32094e-008
vn 0.404601 -0.357289 0.841809
vn -0.508982 -0.179705 0.84181
vn -0.593427 -0.614139 0.520267
vn 0.320155 -0.791722 0.520266
vn 0.508983 0.179704 0.841809
vn -0.4046 0.357288 0.84181
vn -0.508982 -0.179705 0.84181
vn 0.404601 -0.357289 0.841809
vn 0.593425 0.61414 0.520268
vn -0.320157 0.791721 0.520266
vn -0.4046 0.357288 0.84181
vn 0.508983 0.179704 0.841809
vn 0.625678 0.780082 9.70782e-008
vn -0.287907 0.957658 9.70774e-008
vn -0.320157 0.791721 0.520266
vn 0.593425 0.61414 0.520268
vn -0.593425 0.61414 -0.520268
vn -0.508983 0.179704 -0.841809
vn -0.404601 -0.357289 -0.841809
vn -0.320155 -0.791722 -0.520266
vn -0.287901 -0.95766 -6.93412e-008
vn -0.320155 -0.791722 0.520266
vn -0.404601 -0.357289 0.841809
vn -0.508983 0.179704 0.841809
vn -0.593425 0.61414 0.520268
vn -0.625678 0.780082 -6.93416e-008
vn 0.320157 0.791721 0.520266
vn 0.4046 0.357288 0.84181
vn 0.508982 -0.179705 0.84181
vn 0.593427 -0.614139 0.520266
vn 0.625683 -0.780078 -6.93413e-008
vn 0.593427 -0.614139 -0.520267
vn 0.508982 -0.179705 -0.84181
vn 0.4046 0.357288 -0.84181
vn 0.320157 0.791721 -0.520266
vn 0.287907 0.957658 -6.9341e-008
vn 0.320157 0.791721 0.520266
vn 0.287907 0.957658 -6.9341e-008
vn -0.625678 0.780082 -6.93416e-008
vn -0.593425 0.61414 0.520268
vn 0.4046 0.357288 0.84181
vn 0.320157 0.791721 0.520266
vn -0.593425 0.61414 0.520268
vn -0.508983 0.179704 0.841809
vn 0.508982 -0.179705 0.84181
vn 0.4046 0.357288 0.84181
vn -0.508983 0.179704 0.841809
vn -0.404601 -0.357289 0.841809
vn 0.593427 -0.614139 0.520266
vn 0.508982 -0.179705 0.84181
vn -0.404601 -0.357289 0.841809
vn -0.320155 -0.791722 0.520266
vn 0.625683 -0.780078 -6.93413e-008
vn 0.593427 -0.614139 0.520266
vn -0.320155 -0.791722 0.520266
vn -0.287901 -0.95766 -6.93412e-008
vn -0.320155 -0.791722 -0.520266
vn 0.593427 -0.614139 -0.520267
vn 0.625683 -0.780078 -6.93413e-008
vn -0.287901 -0.95766 -6.93412e-008
vn -0.404601 -0.357289 -0.841809
vn 0.508982 -0.179705 -0.84181
vn 0.593427 -0.614139 -0.520267
vn -0.320155 -0.791722 -0.520266
vn -0.508983 0.179704 -0.841809
vn 0.4046 0.357288 -0.84181
vn 0.508982 -0.179705 -0.84181
vn -0.404601 -0.357289 -0.841809
vn -0.593425 0.61414 -0.520268
vn 0.320157 0.791721 -0.520266
vn 0.4046 0.357288 -0.84181
vn -0.508983 0.179704 -0.841809
vn -0.625678 0.780082 -6.93416e-008
vn 0.287907 0.957658 -6.9341e-008
vn 0.320157 0.791721 -0.520266
vn -0.593425 0.61414 -0.520268
vn 0.593425 0.61414 0.520268
vn 0.508983 0.179704 0.841809
vn 0.404601 -0.357289 0.841809
vn 0.320155 -0.791722 0.520266
vn 0.287901 -0.95766 -6.93412e-008
vn 0.320155 -0.791722 -0.520266
vn 0.404601 -0.357289 -0.841809
vn 0.508983 0.179704 -0.841809
vn 0.593425 0.61414 -0.520268
vn 0.625678 0.780082 -6.93416e-008
vn -0.320157 0.791721 -0.520266
vn -0.4046 0.357288 -0.84181
vn -0.508982 -0.179705 -0.84181
vn -0.593427 -0.614139 -0.520267
vn -0.625683 -0.780078 -6.93413e-008
vn -0.593427 -0.614139 0.520266
vn -0.508982 -0.179705 0.84181
vn -0.4046 0.357288 0.84181
vn -0.320157 0.791721 0.520266
vn -0.287907 0.957658 -6.9341e-008
vn 0.625678 0.780082 -6.93416e-008
vn -0.287907 0.957658 -6.9341e-008
vn -0.320157 0.791721 0.520266
vn 0.593425 0.61414 0.520268
vn 0.593425 0.61414 0.520268
vn -0.320157 0.791721 0.520266
vn -0.4046 0.357288 0.84181
vn 0.508983 0.179704 0.841809
vn 0.508983 0.179704 0.841809
vn -0.4046 0.357288 0.84181
vn -0.508982 -0.179705 0.84181
vn 0.404601 -0.357289 0.841809
vn 0.404601 -0.357289 0.841809
vn -0.508982 -0.179705 0.84181
vn -0.593427 -0.614139 0.520266
vn 0.320155 -0.791722 0.520266
vn 0.320155 -0.791722 0.520266
vn -0.593427 -0.614139 0.520266
vn -0.625683 -0.780078 -6.93413e-008
vn 0.287901 -0.95766 -6.93412e-008
vn -0.625683 -0.780078 -6.93413e-008
vn -0.593427 -0.614139 -0.520267
vn 0.320155 -0.791722 -0.520266
vn 0.287901 -0.95766 -6.93412e-008
vn -0.593427 -0.614139 -0.520267
vn -0.508982 -0.179705 -0.84181
vn 0.404601 -0.357289 -0.841809
vn 0.320155 -0.791722 -0.520266
vn -0.508982 -0.179705 -0.84181
vn -0.4046 0.357288 -0.84181
vn 0.508983 0.179704 -0.841809
vn 0.404601 -0.357289 -0.841809
vn -0.4046 0.357288 -0.84181
vn -0.320157 0.791721 -0.520266
vn 0.593425 0.61414 -0.520268
vn 0.508983 0.179704 -0.841809
vn -0.320157 0.791721 -0.520266
vn -0.287907 0.957658 -6.9341e-008
vn 0.625678 0.780082 -6.93416e-008
vn 0.593425 0.61414 -0.520268
g group_Default
usemtl Default
s off
f 20/62/1 5/66/2 4/64/3 18/60/4 17/54/5 16/48/6 15/40/7 14/42/8 13/50/9 19/56/10
f 6/51/11 7/43/12 8/41/13 9/49/14 10/55/15 11/61/16 2/65/17 3/67/18 12/63/19 1/57/20
f 115/47/21 118/39/22 99/38/23 97/46/24
f 98/36/25 117/37/26 114/45/27 96/44/28
f 95/35/29 94/33/30 112/59/31 113/53/32
f 113/53/33 112/59/34 102/58/35 103/52/36
f 103/52/37 102/58/38 90/32/39 91/34/40
f 19/56/41 1/57/42 12/63/43 20/62/44
f 20/62/45 12/63/46 3/67/47 5/66/48
f 5/66/49 3/67/50 2/65/51 4/64/52
f 4/64/53 2/65/54 11/61/55 18/60/56
f 18/60/57 11/61/58 10/55/59 17/54/60
f 10/55/61 9/49/62 16/48/63 17/54/64
f 9/49/65 8/41/66 15/40/67 16/48/68
f 8/41/69 7/43/70 14/42/71 15/40/72
f 7/43/73 6/51/74 13/50/75 14/42/76
f 6/51/77 1/57/78 19/56/79 13/50/80
f 88/1/81 101/27/82 115/21/83 97/8/84
f 118/21/85 111/27/86 92/1/87 99/8/88
f 88/1/89 90/2/90 102/31/91 101/27/92
f 111/27/93 112/31/94 94/2/95 92/1/96
f 102/23/97 112/5/98 111/9/99 101/19/100
f 93/3/101 95/4/102 113/30/103 110/26/104
f 110/10/105 113/6/106 103/22/107 100/18/108
f 100/26/109 103/30/110 91/4/111 89/3/112
f 98/7/113 93/3/114 110/26/115 117/20/116
f 100/26/117 89/3/118 96/7/119 114/20/120
f 101/19/121 111/9/122 118/11/123 115/15/124
f 117/12/125 110/10/126 100/18/127 114/14/128
f 89/18/129 93/10/130 98/12/131 96/14/132
f 91/22/133 95/6/134 93/10/135 89/18/136
f 90/32/137 94/33/138 95/35/139 91/34/140
f 99/11/141 92/9/142 88/19/143 97/15/144
f 92/9/145 94/5/146 90/23/147 88/19/148
f 22/17/149 23/25/150 24/29/151 25/28/152 26/24/153 27/16/154 21/13/155
f 108/17/156 22/17/157 21/13/158 109/13/159
f 106/25/160 23/25/161 22/17/162 108/17/163
f 24/29/164 23/25/165 106/25/166 105/29/167
f 25/28/168 24/29/169 105/29/170 104/28/171
f 26/24/172 25/28/173 104/28/174 116/24/175
f 107/16/176 27/16/177 26/24/178 116/24/179
f 109/13/180 21/13/181 27/16/182 107/16/183
f 107/16/184 116/24/185 104/28/186 105/29/187 106/25/188 108/17/189 109/13/190
f 40/50/191 41/42/192 42/40/193 43/48/194 44/54/195 45/60/196 31/64/197 32/66/198 47/62/199 46/56/200
f 39/63/201 30/67/202 29/65/203 38/61/204 37/55/205 36/49/206 35/41/207 34/43/208 33/51/209 28/57/210
f 39/63/211 28/57/212 46/56/213 47/62/214
f 30/67/215 39/63/216 47/62/217 32/66/218
f 29/65/219 30/67/220 32/66/221 31/64/222
f 38/61/223 29/65/224 31/64/225 45/60/226
f 37/55/227 38/61/228 45/60/229 44/54/230
f 43/48/231 36/49/232 37/55/233 44/54/234
f 42/40/235 35/41/236 36/49/237 43/48/238
f 41/42/239 34/43/240 35/41/241 42/40/242
f 40/50/243 33/51/244 34/43/245 41/42/246
f 46/56/247 28/57/248 33/51/249 40/50/250
f 60/50/251 61/42/252 62/40/253 63/48/254 64/54/255 65/60/256 51/64/257 52/66/258 67/62/259 66/56/260
f 59/63/261 50/67/262 49/65/263 58/61/264 57/55/265 56/49/266 55/41/267 54/43/268 53/51/269 48/57/270
f 59/63/271 48/57/272 66/56/273 67/62/274
f 50/67/275 59/63/276 67/62/277 52/66/278
f 49/65/279 50/67/280 52/66/281 51/64/282
f 58/61/283 49/65/284 51/64/285 65/60/286
f 57/55/287 58/61/288 65/60/289 64/54/290
f 63/48/291 56/49/292 57/55/293 64/54/294
f 62/40/295 55/41/296 56/49/297 63/48/298
f 61/42/299 54/43/300 55/41/301 62/40/302
f 60/50/303 53/51/304 54/43/305 61/42/306
f 66/56/307 48/57/308 53/51/309 60/50/310
f 87/62/311 72/66/312 71/64/313 85/60/314 84/54/315 83/48/316 82/40/317 81/42/318 80/50/319 86/56/320
f 73/51/321 74/43/322 75/41/323 76/49/324 77/55/325 78/61/326 69/65/327 70/67/328 79/63/329 68/57/330
f 86/56/331 68/57/332 79/63/333 87/62/334
f 87/62/335 79/63/336 70/67/337 72/66/338
f 72/66/339 70/67/340 69/65/341 71/64/342
f 71/64/343 69/65/344 78/61/345 85/60/346
f 85/60/347 78/61/348 77/55/349 84/54/350
f 77/55/351 76/49/352 83/48/353 84/54/354
f 76/49/355 75/41/356 82/40/357 83/48/358
f 75/41/359 74/43/360 81/42/361 82/40/362
f 74/43/363 73/51/364 80/50/365 81/42/366
f 73/51/367 68/57/368 86/56/369 80/50/370
